<svg xmlns="http://www.w3.org/2000/svg" width="1220" height="720" viewBox="0 0 1220 720">
<rect width="1220" height="720" fill="#f8fafc"/>
<text x="24" y="34" font-size="24" font-family="Segoe UI" font-weight="700" fill="#0f172a">600-device synthetic network fabric</text>
<text x="24" y="58" font-size="14" font-family="Segoe UI" fill="#475569">Dots are devices; colored lines are the competing benchmark corridors.</text>
<line x1="70.0" y1="82" x2="70.0" y2="678" stroke="#e2e8f0" stroke-width="1"/>
<text x="52.0" y="702" font-size="12" font-family="Segoe UI" fill="#64748b">Z0</text>
<line x1="168.2" y1="82" x2="168.2" y2="678" stroke="#e2e8f0" stroke-width="1"/>
<text x="150.2" y="702" font-size="12" font-family="Segoe UI" fill="#64748b">Z1</text>
<line x1="266.4" y1="82" x2="266.4" y2="678" stroke="#e2e8f0" stroke-width="1"/>
<text x="248.4" y="702" font-size="12" font-family="Segoe UI" fill="#64748b">Z2</text>
<line x1="364.5" y1="82" x2="364.5" y2="678" stroke="#e2e8f0" stroke-width="1"/>
<text x="346.5" y="702" font-size="12" font-family="Segoe UI" fill="#64748b">Z3</text>
<line x1="462.7" y1="82" x2="462.7" y2="678" stroke="#e2e8f0" stroke-width="1"/>
<text x="444.7" y="702" font-size="12" font-family="Segoe UI" fill="#64748b">Z4</text>
<line x1="560.9" y1="82" x2="560.9" y2="678" stroke="#e2e8f0" stroke-width="1"/>
<text x="542.9" y="702" font-size="12" font-family="Segoe UI" fill="#64748b">Z5</text>
<line x1="659.1" y1="82" x2="659.1" y2="678" stroke="#e2e8f0" stroke-width="1"/>
<text x="641.1" y="702" font-size="12" font-family="Segoe UI" fill="#64748b">Z6</text>
<line x1="757.3" y1="82" x2="757.3" y2="678" stroke="#e2e8f0" stroke-width="1"/>
<text x="739.3" y="702" font-size="12" font-family="Segoe UI" fill="#64748b">Z7</text>
<line x1="855.5" y1="82" x2="855.5" y2="678" stroke="#e2e8f0" stroke-width="1"/>
<text x="837.5" y="702" font-size="12" font-family="Segoe UI" fill="#64748b">Z8</text>
<line x1="953.6" y1="82" x2="953.6" y2="678" stroke="#e2e8f0" stroke-width="1"/>
<text x="935.6" y="702" font-size="12" font-family="Segoe UI" fill="#64748b">Z9</text>
<line x1="1051.8" y1="82" x2="1051.8" y2="678" stroke="#e2e8f0" stroke-width="1"/>
<text x="1033.8" y="702" font-size="12" font-family="Segoe UI" fill="#64748b">Z10</text>
<line x1="1150.0" y1="82" x2="1150.0" y2="678" stroke="#e2e8f0" stroke-width="1"/>
<text x="1132.0" y="702" font-size="12" font-family="Segoe UI" fill="#64748b">Z11</text>
<circle cx="70.0" cy="95.0" r="3.4" fill="#0f172a" opacity="0.92"/>
<circle cx="70.0" cy="106.6" r="2.0" fill="#cbd5e1" opacity="0.92"/>
<circle cx="70.0" cy="118.3" r="2.0" fill="#cbd5e1" opacity="0.92"/>
<circle cx="70.0" cy="129.9" r="2.0" fill="#cbd5e1" opacity="0.92"/>
<circle cx="70.0" cy="141.5" r="2.0" fill="#cbd5e1" opacity="0.92"/>
<circle cx="70.0" cy="153.2" r="2.0" fill="#cbd5e1" opacity="0.92"/>
<circle cx="70.0" cy="164.8" r="2.0" fill="#cbd5e1" opacity="0.92"/>
<circle cx="70.0" cy="176.4" r="2.0" fill="#cbd5e1" opacity="0.92"/>
<circle cx="70.0" cy="188.1" r="2.0" fill="#cbd5e1" opacity="0.92"/>
<circle cx="70.0" cy="199.7" r="2.0" fill="#cbd5e1" opacity="0.92"/>
<circle cx="70.0" cy="211.3" r="2.0" fill="#cbd5e1" opacity="0.92"/>
<circle cx="70.0" cy="223.0" r="2.0" fill="#cbd5e1" opacity="0.92"/>
<circle cx="70.0" cy="234.6" r="2.0" fill="#cbd5e1" opacity="0.92"/>
<circle cx="70.0" cy="246.2" r="2.0" fill="#cbd5e1" opacity="0.92"/>
<circle cx="70.0" cy="257.9" r="2.0" fill="#cbd5e1" opacity="0.92"/>
<circle cx="70.0" cy="269.5" r="2.0" fill="#cbd5e1" opacity="0.92"/>
<circle cx="70.0" cy="281.1" r="2.0" fill="#cbd5e1" opacity="0.92"/>
<circle cx="70.0" cy="292.8" r="2.0" fill="#cbd5e1" opacity="0.92"/>
<circle cx="70.0" cy="304.4" r="2.0" fill="#cbd5e1" opacity="0.92"/>
<circle cx="70.0" cy="316.0" r="2.0" fill="#cbd5e1" opacity="0.92"/>
<circle cx="70.0" cy="327.7" r="2.0" fill="#cbd5e1" opacity="0.92"/>
<circle cx="70.0" cy="339.3" r="2.0" fill="#cbd5e1" opacity="0.92"/>
<circle cx="70.0" cy="350.9" r="2.0" fill="#cbd5e1" opacity="0.92"/>
<circle cx="70.0" cy="362.6" r="2.0" fill="#cbd5e1" opacity="0.92"/>
<circle cx="70.0" cy="374.2" r="2.0" fill="#cbd5e1" opacity="0.92"/>
<circle cx="70.0" cy="385.8" r="2.0" fill="#cbd5e1" opacity="0.92"/>
<circle cx="70.0" cy="397.4" r="2.0" fill="#cbd5e1" opacity="0.92"/>
<circle cx="70.0" cy="409.1" r="2.0" fill="#cbd5e1" opacity="0.92"/>
<circle cx="70.0" cy="420.7" r="2.0" fill="#cbd5e1" opacity="0.92"/>
<circle cx="70.0" cy="432.3" r="2.0" fill="#cbd5e1" opacity="0.92"/>
<circle cx="70.0" cy="444.0" r="2.0" fill="#cbd5e1" opacity="0.92"/>
<circle cx="70.0" cy="455.6" r="2.0" fill="#cbd5e1" opacity="0.92"/>
<circle cx="70.0" cy="467.2" r="2.0" fill="#cbd5e1" opacity="0.92"/>
<circle cx="70.0" cy="478.9" r="2.0" fill="#cbd5e1" opacity="0.92"/>
<circle cx="70.0" cy="490.5" r="2.0" fill="#cbd5e1" opacity="0.92"/>
<circle cx="70.0" cy="502.1" r="2.0" fill="#cbd5e1" opacity="0.92"/>
<circle cx="70.0" cy="513.8" r="2.0" fill="#cbd5e1" opacity="0.92"/>
<circle cx="70.0" cy="525.4" r="2.0" fill="#cbd5e1" opacity="0.92"/>
<circle cx="70.0" cy="537.0" r="2.0" fill="#cbd5e1" opacity="0.92"/>
<circle cx="70.0" cy="548.7" r="2.0" fill="#cbd5e1" opacity="0.92"/>
<circle cx="70.0" cy="560.3" r="2.0" fill="#cbd5e1" opacity="0.92"/>
<circle cx="70.0" cy="571.9" r="2.0" fill="#cbd5e1" opacity="0.92"/>
<circle cx="70.0" cy="583.6" r="2.0" fill="#cbd5e1" opacity="0.92"/>
<circle cx="70.0" cy="595.2" r="3.4" fill="#0f172a" opacity="0.92"/>
<circle cx="70.0" cy="606.8" r="2.0" fill="#cbd5e1" opacity="0.92"/>
<circle cx="70.0" cy="618.5" r="2.0" fill="#cbd5e1" opacity="0.92"/>
<circle cx="70.0" cy="630.1" r="2.0" fill="#cbd5e1" opacity="0.92"/>
<circle cx="70.0" cy="641.7" r="2.0" fill="#cbd5e1" opacity="0.92"/>
<circle cx="70.0" cy="653.4" r="2.0" fill="#cbd5e1" opacity="0.92"/>
<circle cx="70.0" cy="665.0" r="2.0" fill="#cbd5e1" opacity="0.92"/>
<circle cx="168.2" cy="95.0" r="2.0" fill="#cbd5e1" opacity="0.92"/>
<circle cx="168.2" cy="106.6" r="2.0" fill="#cbd5e1" opacity="0.92"/>
<circle cx="168.2" cy="118.3" r="2.0" fill="#cbd5e1" opacity="0.92"/>
<circle cx="168.2" cy="129.9" r="2.0" fill="#cbd5e1" opacity="0.92"/>
<circle cx="168.2" cy="141.5" r="2.0" fill="#cbd5e1" opacity="0.92"/>
<circle cx="168.2" cy="153.2" r="2.0" fill="#cbd5e1" opacity="0.92"/>
<circle cx="168.2" cy="164.8" r="2.0" fill="#cbd5e1" opacity="0.92"/>
<circle cx="168.2" cy="176.4" r="2.0" fill="#cbd5e1" opacity="0.92"/>
<circle cx="168.2" cy="188.1" r="2.0" fill="#cbd5e1" opacity="0.92"/>
<circle cx="168.2" cy="199.7" r="2.0" fill="#cbd5e1" opacity="0.92"/>
<circle cx="168.2" cy="211.3" r="3.4" fill="#0f172a" opacity="0.92"/>
<circle cx="168.2" cy="223.0" r="2.0" fill="#cbd5e1" opacity="0.92"/>
<circle cx="168.2" cy="234.6" r="3.4" fill="#0f172a" opacity="0.92"/>
<circle cx="168.2" cy="246.2" r="2.0" fill="#cbd5e1" opacity="0.92"/>
<circle cx="168.2" cy="257.9" r="2.0" fill="#cbd5e1" opacity="0.92"/>
<circle cx="168.2" cy="269.5" r="2.0" fill="#cbd5e1" opacity="0.92"/>
<circle cx="168.2" cy="281.1" r="2.0" fill="#cbd5e1" opacity="0.92"/>
<circle cx="168.2" cy="292.8" r="2.0" fill="#cbd5e1" opacity="0.92"/>
<circle cx="168.2" cy="304.4" r="2.0" fill="#cbd5e1" opacity="0.92"/>
<circle cx="168.2" cy="316.0" r="2.0" fill="#cbd5e1" opacity="0.92"/>
<circle cx="168.2" cy="327.7" r="2.0" fill="#cbd5e1" opacity="0.92"/>
<circle cx="168.2" cy="339.3" r="2.0" fill="#cbd5e1" opacity="0.92"/>
<circle cx="168.2" cy="350.9" r="2.0" fill="#cbd5e1" opacity="0.92"/>
<circle cx="168.2" cy="362.6" r="2.0" fill="#cbd5e1" opacity="0.92"/>
<circle cx="168.2" cy="374.2" r="2.0" fill="#cbd5e1" opacity="0.92"/>
<circle cx="168.2" cy="385.8" r="2.0" fill="#cbd5e1" opacity="0.92"/>
<circle cx="168.2" cy="397.4" r="2.0" fill="#cbd5e1" opacity="0.92"/>
<circle cx="168.2" cy="409.1" r="2.0" fill="#cbd5e1" opacity="0.92"/>
<circle cx="168.2" cy="420.7" r="2.0" fill="#cbd5e1" opacity="0.92"/>
<circle cx="168.2" cy="432.3" r="2.0" fill="#cbd5e1" opacity="0.92"/>
<circle cx="168.2" cy="444.0" r="2.0" fill="#cbd5e1" opacity="0.92"/>
<circle cx="168.2" cy="455.6" r="2.0" fill="#cbd5e1" opacity="0.92"/>
<circle cx="168.2" cy="467.2" r="2.0" fill="#cbd5e1" opacity="0.92"/>
<circle cx="168.2" cy="478.9" r="2.0" fill="#cbd5e1" opacity="0.92"/>
<circle cx="168.2" cy="490.5" r="2.0" fill="#cbd5e1" opacity="0.92"/>
<circle cx="168.2" cy="502.1" r="2.0" fill="#cbd5e1" opacity="0.92"/>
<circle cx="168.2" cy="513.8" r="2.0" fill="#cbd5e1" opacity="0.92"/>
<circle cx="168.2" cy="525.4" r="2.0" fill="#cbd5e1" opacity="0.92"/>
<circle cx="168.2" cy="537.0" r="2.0" fill="#cbd5e1" opacity="0.92"/>
<circle cx="168.2" cy="548.7" r="2.0" fill="#cbd5e1" opacity="0.92"/>
<circle cx="168.2" cy="560.3" r="2.0" fill="#cbd5e1" opacity="0.92"/>
<circle cx="168.2" cy="571.9" r="2.0" fill="#cbd5e1" opacity="0.92"/>
<circle cx="168.2" cy="583.6" r="2.0" fill="#cbd5e1" opacity="0.92"/>
<circle cx="168.2" cy="595.2" r="2.0" fill="#cbd5e1" opacity="0.92"/>
<circle cx="168.2" cy="606.8" r="3.4" fill="#0f172a" opacity="0.92"/>
<circle cx="168.2" cy="618.5" r="2.0" fill="#cbd5e1" opacity="0.92"/>
<circle cx="168.2" cy="630.1" r="2.0" fill="#cbd5e1" opacity="0.92"/>
<circle cx="168.2" cy="641.7" r="3.4" fill="#0f172a" opacity="0.92"/>
<circle cx="168.2" cy="653.4" r="2.0" fill="#cbd5e1" opacity="0.92"/>
<circle cx="168.2" cy="665.0" r="2.0" fill="#cbd5e1" opacity="0.92"/>
<circle cx="266.4" cy="95.0" r="2.0" fill="#cbd5e1" opacity="0.92"/>
<circle cx="266.4" cy="106.6" r="3.4" fill="#0f172a" opacity="0.92"/>
<circle cx="266.4" cy="118.3" r="2.0" fill="#cbd5e1" opacity="0.92"/>
<circle cx="266.4" cy="129.9" r="2.0" fill="#cbd5e1" opacity="0.92"/>
<circle cx="266.4" cy="141.5" r="2.0" fill="#cbd5e1" opacity="0.92"/>
<circle cx="266.4" cy="153.2" r="2.0" fill="#cbd5e1" opacity="0.92"/>
<circle cx="266.4" cy="164.8" r="2.0" fill="#cbd5e1" opacity="0.92"/>
<circle cx="266.4" cy="176.4" r="2.0" fill="#cbd5e1" opacity="0.92"/>
<circle cx="266.4" cy="188.1" r="2.0" fill="#cbd5e1" opacity="0.92"/>
<circle cx="266.4" cy="199.7" r="2.0" fill="#cbd5e1" opacity="0.92"/>
<circle cx="266.4" cy="211.3" r="2.0" fill="#cbd5e1" opacity="0.92"/>
<circle cx="266.4" cy="223.0" r="2.0" fill="#cbd5e1" opacity="0.92"/>
<circle cx="266.4" cy="234.6" r="2.0" fill="#cbd5e1" opacity="0.92"/>
<circle cx="266.4" cy="246.2" r="2.0" fill="#cbd5e1" opacity="0.92"/>
<circle cx="266.4" cy="257.9" r="2.0" fill="#cbd5e1" opacity="0.92"/>
<circle cx="266.4" cy="269.5" r="3.4" fill="#0f172a" opacity="0.92"/>
<circle cx="266.4" cy="281.1" r="2.0" fill="#cbd5e1" opacity="0.92"/>
<circle cx="266.4" cy="292.8" r="2.0" fill="#cbd5e1" opacity="0.92"/>
<circle cx="266.4" cy="304.4" r="2.0" fill="#cbd5e1" opacity="0.92"/>
<circle cx="266.4" cy="316.0" r="2.0" fill="#cbd5e1" opacity="0.92"/>
<circle cx="266.4" cy="327.7" r="2.0" fill="#cbd5e1" opacity="0.92"/>
<circle cx="266.4" cy="339.3" r="2.0" fill="#cbd5e1" opacity="0.92"/>
<circle cx="266.4" cy="350.9" r="2.0" fill="#cbd5e1" opacity="0.92"/>
<circle cx="266.4" cy="362.6" r="2.0" fill="#cbd5e1" opacity="0.92"/>
<circle cx="266.4" cy="374.2" r="2.0" fill="#cbd5e1" opacity="0.92"/>
<circle cx="266.4" cy="385.8" r="2.0" fill="#cbd5e1" opacity="0.92"/>
<circle cx="266.4" cy="397.4" r="2.0" fill="#cbd5e1" opacity="0.92"/>
<circle cx="266.4" cy="409.1" r="2.0" fill="#cbd5e1" opacity="0.92"/>
<circle cx="266.4" cy="420.7" r="2.0" fill="#cbd5e1" opacity="0.92"/>
<circle cx="266.4" cy="432.3" r="2.0" fill="#cbd5e1" opacity="0.92"/>
<circle cx="266.4" cy="444.0" r="2.0" fill="#cbd5e1" opacity="0.92"/>
<circle cx="266.4" cy="455.6" r="2.0" fill="#cbd5e1" opacity="0.92"/>
<circle cx="266.4" cy="467.2" r="2.0" fill="#cbd5e1" opacity="0.92"/>
<circle cx="266.4" cy="478.9" r="2.0" fill="#cbd5e1" opacity="0.92"/>
<circle cx="266.4" cy="490.5" r="2.0" fill="#cbd5e1" opacity="0.92"/>
<circle cx="266.4" cy="502.1" r="2.0" fill="#cbd5e1" opacity="0.92"/>
<circle cx="266.4" cy="513.8" r="2.0" fill="#cbd5e1" opacity="0.92"/>
<circle cx="266.4" cy="525.4" r="2.0" fill="#cbd5e1" opacity="0.92"/>
<circle cx="266.4" cy="537.0" r="2.0" fill="#cbd5e1" opacity="0.92"/>
<circle cx="266.4" cy="548.7" r="2.0" fill="#cbd5e1" opacity="0.92"/>
<circle cx="266.4" cy="560.3" r="2.0" fill="#cbd5e1" opacity="0.92"/>
<circle cx="266.4" cy="571.9" r="2.0" fill="#cbd5e1" opacity="0.92"/>
<circle cx="266.4" cy="583.6" r="2.0" fill="#cbd5e1" opacity="0.92"/>
<circle cx="266.4" cy="595.2" r="2.0" fill="#cbd5e1" opacity="0.92"/>
<circle cx="266.4" cy="606.8" r="2.0" fill="#cbd5e1" opacity="0.92"/>
<circle cx="266.4" cy="618.5" r="2.0" fill="#cbd5e1" opacity="0.92"/>
<circle cx="266.4" cy="630.1" r="2.0" fill="#cbd5e1" opacity="0.92"/>
<circle cx="266.4" cy="641.7" r="2.0" fill="#cbd5e1" opacity="0.92"/>
<circle cx="266.4" cy="653.4" r="3.4" fill="#0f172a" opacity="0.92"/>
<circle cx="266.4" cy="665.0" r="2.0" fill="#cbd5e1" opacity="0.92"/>
<circle cx="364.5" cy="95.0" r="2.0" fill="#cbd5e1" opacity="0.92"/>
<circle cx="364.5" cy="106.6" r="2.0" fill="#cbd5e1" opacity="0.92"/>
<circle cx="364.5" cy="118.3" r="3.4" fill="#0f172a" opacity="0.92"/>
<circle cx="364.5" cy="129.9" r="2.0" fill="#cbd5e1" opacity="0.92"/>
<circle cx="364.5" cy="141.5" r="2.0" fill="#cbd5e1" opacity="0.92"/>
<circle cx="364.5" cy="153.2" r="3.4" fill="#0f172a" opacity="0.92"/>
<circle cx="364.5" cy="164.8" r="2.0" fill="#cbd5e1" opacity="0.92"/>
<circle cx="364.5" cy="176.4" r="2.0" fill="#cbd5e1" opacity="0.92"/>
<circle cx="364.5" cy="188.1" r="2.0" fill="#cbd5e1" opacity="0.92"/>
<circle cx="364.5" cy="199.7" r="2.0" fill="#cbd5e1" opacity="0.92"/>
<circle cx="364.5" cy="211.3" r="2.0" fill="#cbd5e1" opacity="0.92"/>
<circle cx="364.5" cy="223.0" r="2.0" fill="#cbd5e1" opacity="0.92"/>
<circle cx="364.5" cy="234.6" r="2.0" fill="#cbd5e1" opacity="0.92"/>
<circle cx="364.5" cy="246.2" r="2.0" fill="#cbd5e1" opacity="0.92"/>
<circle cx="364.5" cy="257.9" r="2.0" fill="#cbd5e1" opacity="0.92"/>
<circle cx="364.5" cy="269.5" r="2.0" fill="#cbd5e1" opacity="0.92"/>
<circle cx="364.5" cy="281.1" r="2.0" fill="#cbd5e1" opacity="0.92"/>
<circle cx="364.5" cy="292.8" r="2.0" fill="#cbd5e1" opacity="0.92"/>
<circle cx="364.5" cy="304.4" r="3.4" fill="#0f172a" opacity="0.92"/>
<circle cx="364.5" cy="316.0" r="2.0" fill="#cbd5e1" opacity="0.92"/>
<circle cx="364.5" cy="327.7" r="3.4" fill="#0f172a" opacity="0.92"/>
<circle cx="364.5" cy="339.3" r="2.0" fill="#cbd5e1" opacity="0.92"/>
<circle cx="364.5" cy="350.9" r="2.0" fill="#cbd5e1" opacity="0.92"/>
<circle cx="364.5" cy="362.6" r="2.0" fill="#cbd5e1" opacity="0.92"/>
<circle cx="364.5" cy="374.2" r="2.0" fill="#cbd5e1" opacity="0.92"/>
<circle cx="364.5" cy="385.8" r="2.0" fill="#cbd5e1" opacity="0.92"/>
<circle cx="364.5" cy="397.4" r="2.0" fill="#cbd5e1" opacity="0.92"/>
<circle cx="364.5" cy="409.1" r="2.0" fill="#cbd5e1" opacity="0.92"/>
<circle cx="364.5" cy="420.7" r="2.0" fill="#cbd5e1" opacity="0.92"/>
<circle cx="364.5" cy="432.3" r="2.0" fill="#cbd5e1" opacity="0.92"/>
<circle cx="364.5" cy="444.0" r="2.0" fill="#cbd5e1" opacity="0.92"/>
<circle cx="364.5" cy="455.6" r="2.0" fill="#cbd5e1" opacity="0.92"/>
<circle cx="364.5" cy="467.2" r="2.0" fill="#cbd5e1" opacity="0.92"/>
<circle cx="364.5" cy="478.9" r="2.0" fill="#cbd5e1" opacity="0.92"/>
<circle cx="364.5" cy="490.5" r="2.0" fill="#cbd5e1" opacity="0.92"/>
<circle cx="364.5" cy="502.1" r="2.0" fill="#cbd5e1" opacity="0.92"/>
<circle cx="364.5" cy="513.8" r="2.0" fill="#cbd5e1" opacity="0.92"/>
<circle cx="364.5" cy="525.4" r="2.0" fill="#cbd5e1" opacity="0.92"/>
<circle cx="364.5" cy="537.0" r="2.0" fill="#cbd5e1" opacity="0.92"/>
<circle cx="364.5" cy="548.7" r="2.0" fill="#cbd5e1" opacity="0.92"/>
<circle cx="364.5" cy="560.3" r="2.0" fill="#cbd5e1" opacity="0.92"/>
<circle cx="364.5" cy="571.9" r="2.0" fill="#cbd5e1" opacity="0.92"/>
<circle cx="364.5" cy="583.6" r="2.0" fill="#cbd5e1" opacity="0.92"/>
<circle cx="364.5" cy="595.2" r="2.0" fill="#cbd5e1" opacity="0.92"/>
<circle cx="364.5" cy="606.8" r="2.0" fill="#cbd5e1" opacity="0.92"/>
<circle cx="364.5" cy="618.5" r="2.0" fill="#cbd5e1" opacity="0.92"/>
<circle cx="364.5" cy="630.1" r="2.0" fill="#cbd5e1" opacity="0.92"/>
<circle cx="364.5" cy="641.7" r="2.0" fill="#cbd5e1" opacity="0.92"/>
<circle cx="364.5" cy="653.4" r="2.0" fill="#cbd5e1" opacity="0.92"/>
<circle cx="364.5" cy="665.0" r="2.0" fill="#cbd5e1" opacity="0.92"/>
<circle cx="462.7" cy="95.0" r="2.0" fill="#cbd5e1" opacity="0.92"/>
<circle cx="462.7" cy="106.6" r="2.0" fill="#cbd5e1" opacity="0.92"/>
<circle cx="462.7" cy="118.3" r="2.0" fill="#cbd5e1" opacity="0.92"/>
<circle cx="462.7" cy="129.9" r="2.0" fill="#cbd5e1" opacity="0.92"/>
<circle cx="462.7" cy="141.5" r="2.0" fill="#cbd5e1" opacity="0.92"/>
<circle cx="462.7" cy="153.2" r="2.0" fill="#cbd5e1" opacity="0.92"/>
<circle cx="462.7" cy="164.8" r="3.4" fill="#0f172a" opacity="0.92"/>
<circle cx="462.7" cy="176.4" r="2.0" fill="#cbd5e1" opacity="0.92"/>
<circle cx="462.7" cy="188.1" r="2.0" fill="#cbd5e1" opacity="0.92"/>
<circle cx="462.7" cy="199.7" r="3.4" fill="#0f172a" opacity="0.92"/>
<circle cx="462.7" cy="211.3" r="2.0" fill="#cbd5e1" opacity="0.92"/>
<circle cx="462.7" cy="223.0" r="2.0" fill="#cbd5e1" opacity="0.92"/>
<circle cx="462.7" cy="234.6" r="2.0" fill="#cbd5e1" opacity="0.92"/>
<circle cx="462.7" cy="246.2" r="2.0" fill="#cbd5e1" opacity="0.92"/>
<circle cx="462.7" cy="257.9" r="2.0" fill="#cbd5e1" opacity="0.92"/>
<circle cx="462.7" cy="269.5" r="2.0" fill="#cbd5e1" opacity="0.92"/>
<circle cx="462.7" cy="281.1" r="2.0" fill="#cbd5e1" opacity="0.92"/>
<circle cx="462.7" cy="292.8" r="2.0" fill="#cbd5e1" opacity="0.92"/>
<circle cx="462.7" cy="304.4" r="2.0" fill="#cbd5e1" opacity="0.92"/>
<circle cx="462.7" cy="316.0" r="2.0" fill="#cbd5e1" opacity="0.92"/>
<circle cx="462.7" cy="327.7" r="2.0" fill="#cbd5e1" opacity="0.92"/>
<circle cx="462.7" cy="339.3" r="2.0" fill="#cbd5e1" opacity="0.92"/>
<circle cx="462.7" cy="350.9" r="2.0" fill="#cbd5e1" opacity="0.92"/>
<circle cx="462.7" cy="362.6" r="2.0" fill="#cbd5e1" opacity="0.92"/>
<circle cx="462.7" cy="374.2" r="2.0" fill="#cbd5e1" opacity="0.92"/>
<circle cx="462.7" cy="385.8" r="3.4" fill="#0f172a" opacity="0.92"/>
<circle cx="462.7" cy="397.4" r="2.0" fill="#cbd5e1" opacity="0.92"/>
<circle cx="462.7" cy="409.1" r="2.0" fill="#cbd5e1" opacity="0.92"/>
<circle cx="462.7" cy="420.7" r="2.0" fill="#cbd5e1" opacity="0.92"/>
<circle cx="462.7" cy="432.3" r="2.0" fill="#cbd5e1" opacity="0.92"/>
<circle cx="462.7" cy="444.0" r="2.0" fill="#cbd5e1" opacity="0.92"/>
<circle cx="462.7" cy="455.6" r="2.0" fill="#cbd5e1" opacity="0.92"/>
<circle cx="462.7" cy="467.2" r="2.0" fill="#cbd5e1" opacity="0.92"/>
<circle cx="462.7" cy="478.9" r="2.0" fill="#cbd5e1" opacity="0.92"/>
<circle cx="462.7" cy="490.5" r="2.0" fill="#cbd5e1" opacity="0.92"/>
<circle cx="462.7" cy="502.1" r="2.0" fill="#cbd5e1" opacity="0.92"/>
<circle cx="462.7" cy="513.8" r="2.0" fill="#cbd5e1" opacity="0.92"/>
<circle cx="462.7" cy="525.4" r="2.0" fill="#cbd5e1" opacity="0.92"/>
<circle cx="462.7" cy="537.0" r="2.0" fill="#cbd5e1" opacity="0.92"/>
<circle cx="462.7" cy="548.7" r="2.0" fill="#cbd5e1" opacity="0.92"/>
<circle cx="462.7" cy="560.3" r="2.0" fill="#cbd5e1" opacity="0.92"/>
<circle cx="462.7" cy="571.9" r="2.0" fill="#cbd5e1" opacity="0.92"/>
<circle cx="462.7" cy="583.6" r="2.0" fill="#cbd5e1" opacity="0.92"/>
<circle cx="462.7" cy="595.2" r="2.0" fill="#cbd5e1" opacity="0.92"/>
<circle cx="462.7" cy="606.8" r="2.0" fill="#cbd5e1" opacity="0.92"/>
<circle cx="462.7" cy="618.5" r="2.0" fill="#cbd5e1" opacity="0.92"/>
<circle cx="462.7" cy="630.1" r="2.0" fill="#cbd5e1" opacity="0.92"/>
<circle cx="462.7" cy="641.7" r="2.0" fill="#cbd5e1" opacity="0.92"/>
<circle cx="462.7" cy="653.4" r="2.0" fill="#cbd5e1" opacity="0.92"/>
<circle cx="462.7" cy="665.0" r="2.0" fill="#cbd5e1" opacity="0.92"/>
<circle cx="560.9" cy="95.0" r="2.0" fill="#cbd5e1" opacity="0.92"/>
<circle cx="560.9" cy="106.6" r="2.0" fill="#cbd5e1" opacity="0.92"/>
<circle cx="560.9" cy="118.3" r="2.0" fill="#cbd5e1" opacity="0.92"/>
<circle cx="560.9" cy="129.9" r="2.0" fill="#cbd5e1" opacity="0.92"/>
<circle cx="560.9" cy="141.5" r="2.0" fill="#cbd5e1" opacity="0.92"/>
<circle cx="560.9" cy="153.2" r="2.0" fill="#cbd5e1" opacity="0.92"/>
<circle cx="560.9" cy="164.8" r="2.0" fill="#cbd5e1" opacity="0.92"/>
<circle cx="560.9" cy="176.4" r="2.0" fill="#cbd5e1" opacity="0.92"/>
<circle cx="560.9" cy="188.1" r="2.0" fill="#cbd5e1" opacity="0.92"/>
<circle cx="560.9" cy="199.7" r="2.0" fill="#cbd5e1" opacity="0.92"/>
<circle cx="560.9" cy="211.3" r="3.4" fill="#0f172a" opacity="0.92"/>
<circle cx="560.9" cy="223.0" r="2.0" fill="#cbd5e1" opacity="0.92"/>
<circle cx="560.9" cy="234.6" r="2.0" fill="#cbd5e1" opacity="0.92"/>
<circle cx="560.9" cy="246.2" r="3.4" fill="#0f172a" opacity="0.92"/>
<circle cx="560.9" cy="257.9" r="2.0" fill="#cbd5e1" opacity="0.92"/>
<circle cx="560.9" cy="269.5" r="2.0" fill="#cbd5e1" opacity="0.92"/>
<circle cx="560.9" cy="281.1" r="2.0" fill="#cbd5e1" opacity="0.92"/>
<circle cx="560.9" cy="292.8" r="2.0" fill="#cbd5e1" opacity="0.92"/>
<circle cx="560.9" cy="304.4" r="2.0" fill="#cbd5e1" opacity="0.92"/>
<circle cx="560.9" cy="316.0" r="2.0" fill="#cbd5e1" opacity="0.92"/>
<circle cx="560.9" cy="327.7" r="2.0" fill="#cbd5e1" opacity="0.92"/>
<circle cx="560.9" cy="339.3" r="2.0" fill="#cbd5e1" opacity="0.92"/>
<circle cx="560.9" cy="350.9" r="2.0" fill="#cbd5e1" opacity="0.92"/>
<circle cx="560.9" cy="362.6" r="2.0" fill="#cbd5e1" opacity="0.92"/>
<circle cx="560.9" cy="374.2" r="3.4" fill="#0f172a" opacity="0.92"/>
<circle cx="560.9" cy="385.8" r="2.0" fill="#cbd5e1" opacity="0.92"/>
<circle cx="560.9" cy="397.4" r="2.0" fill="#cbd5e1" opacity="0.92"/>
<circle cx="560.9" cy="409.1" r="2.0" fill="#cbd5e1" opacity="0.92"/>
<circle cx="560.9" cy="420.7" r="2.0" fill="#cbd5e1" opacity="0.92"/>
<circle cx="560.9" cy="432.3" r="2.0" fill="#cbd5e1" opacity="0.92"/>
<circle cx="560.9" cy="444.0" r="3.4" fill="#0f172a" opacity="0.92"/>
<circle cx="560.9" cy="455.6" r="2.0" fill="#cbd5e1" opacity="0.92"/>
<circle cx="560.9" cy="467.2" r="2.0" fill="#cbd5e1" opacity="0.92"/>
<circle cx="560.9" cy="478.9" r="2.0" fill="#cbd5e1" opacity="0.92"/>
<circle cx="560.9" cy="490.5" r="2.0" fill="#cbd5e1" opacity="0.92"/>
<circle cx="560.9" cy="502.1" r="2.0" fill="#cbd5e1" opacity="0.92"/>
<circle cx="560.9" cy="513.8" r="2.0" fill="#cbd5e1" opacity="0.92"/>
<circle cx="560.9" cy="525.4" r="2.0" fill="#cbd5e1" opacity="0.92"/>
<circle cx="560.9" cy="537.0" r="2.0" fill="#cbd5e1" opacity="0.92"/>
<circle cx="560.9" cy="548.7" r="2.0" fill="#cbd5e1" opacity="0.92"/>
<circle cx="560.9" cy="560.3" r="2.0" fill="#cbd5e1" opacity="0.92"/>
<circle cx="560.9" cy="571.9" r="2.0" fill="#cbd5e1" opacity="0.92"/>
<circle cx="560.9" cy="583.6" r="2.0" fill="#cbd5e1" opacity="0.92"/>
<circle cx="560.9" cy="595.2" r="2.0" fill="#cbd5e1" opacity="0.92"/>
<circle cx="560.9" cy="606.8" r="2.0" fill="#cbd5e1" opacity="0.92"/>
<circle cx="560.9" cy="618.5" r="2.0" fill="#cbd5e1" opacity="0.92"/>
<circle cx="560.9" cy="630.1" r="2.0" fill="#cbd5e1" opacity="0.92"/>
<circle cx="560.9" cy="641.7" r="2.0" fill="#cbd5e1" opacity="0.92"/>
<circle cx="560.9" cy="653.4" r="2.0" fill="#cbd5e1" opacity="0.92"/>
<circle cx="560.9" cy="665.0" r="2.0" fill="#cbd5e1" opacity="0.92"/>
<circle cx="659.1" cy="95.0" r="2.0" fill="#cbd5e1" opacity="0.92"/>
<circle cx="659.1" cy="106.6" r="2.0" fill="#cbd5e1" opacity="0.92"/>
<circle cx="659.1" cy="118.3" r="2.0" fill="#cbd5e1" opacity="0.92"/>
<circle cx="659.1" cy="129.9" r="2.0" fill="#cbd5e1" opacity="0.92"/>
<circle cx="659.1" cy="141.5" r="2.0" fill="#cbd5e1" opacity="0.92"/>
<circle cx="659.1" cy="153.2" r="2.0" fill="#cbd5e1" opacity="0.92"/>
<circle cx="659.1" cy="164.8" r="2.0" fill="#cbd5e1" opacity="0.92"/>
<circle cx="659.1" cy="176.4" r="2.0" fill="#cbd5e1" opacity="0.92"/>
<circle cx="659.1" cy="188.1" r="2.0" fill="#cbd5e1" opacity="0.92"/>
<circle cx="659.1" cy="199.7" r="2.0" fill="#cbd5e1" opacity="0.92"/>
<circle cx="659.1" cy="211.3" r="2.0" fill="#cbd5e1" opacity="0.92"/>
<circle cx="659.1" cy="223.0" r="2.0" fill="#cbd5e1" opacity="0.92"/>
<circle cx="659.1" cy="234.6" r="2.0" fill="#cbd5e1" opacity="0.92"/>
<circle cx="659.1" cy="246.2" r="2.0" fill="#cbd5e1" opacity="0.92"/>
<circle cx="659.1" cy="257.9" r="3.4" fill="#0f172a" opacity="0.92"/>
<circle cx="659.1" cy="269.5" r="2.0" fill="#cbd5e1" opacity="0.92"/>
<circle cx="659.1" cy="281.1" r="2.0" fill="#cbd5e1" opacity="0.92"/>
<circle cx="659.1" cy="292.8" r="3.4" fill="#0f172a" opacity="0.92"/>
<circle cx="659.1" cy="304.4" r="2.0" fill="#cbd5e1" opacity="0.92"/>
<circle cx="659.1" cy="316.0" r="2.0" fill="#cbd5e1" opacity="0.92"/>
<circle cx="659.1" cy="327.7" r="2.0" fill="#cbd5e1" opacity="0.92"/>
<circle cx="659.1" cy="339.3" r="2.0" fill="#cbd5e1" opacity="0.92"/>
<circle cx="659.1" cy="350.9" r="2.0" fill="#cbd5e1" opacity="0.92"/>
<circle cx="659.1" cy="362.6" r="2.0" fill="#cbd5e1" opacity="0.92"/>
<circle cx="659.1" cy="374.2" r="2.0" fill="#cbd5e1" opacity="0.92"/>
<circle cx="659.1" cy="385.8" r="2.0" fill="#cbd5e1" opacity="0.92"/>
<circle cx="659.1" cy="397.4" r="2.0" fill="#cbd5e1" opacity="0.92"/>
<circle cx="659.1" cy="409.1" r="2.0" fill="#cbd5e1" opacity="0.92"/>
<circle cx="659.1" cy="420.7" r="2.0" fill="#cbd5e1" opacity="0.92"/>
<circle cx="659.1" cy="432.3" r="2.0" fill="#cbd5e1" opacity="0.92"/>
<circle cx="659.1" cy="444.0" r="2.0" fill="#cbd5e1" opacity="0.92"/>
<circle cx="659.1" cy="455.6" r="2.0" fill="#cbd5e1" opacity="0.92"/>
<circle cx="659.1" cy="467.2" r="2.0" fill="#cbd5e1" opacity="0.92"/>
<circle cx="659.1" cy="478.9" r="2.0" fill="#cbd5e1" opacity="0.92"/>
<circle cx="659.1" cy="490.5" r="2.0" fill="#cbd5e1" opacity="0.92"/>
<circle cx="659.1" cy="502.1" r="3.4" fill="#0f172a" opacity="0.92"/>
<circle cx="659.1" cy="513.8" r="2.0" fill="#cbd5e1" opacity="0.92"/>
<circle cx="659.1" cy="525.4" r="2.0" fill="#cbd5e1" opacity="0.92"/>
<circle cx="659.1" cy="537.0" r="2.0" fill="#cbd5e1" opacity="0.92"/>
<circle cx="659.1" cy="548.7" r="2.0" fill="#cbd5e1" opacity="0.92"/>
<circle cx="659.1" cy="560.3" r="2.0" fill="#cbd5e1" opacity="0.92"/>
<circle cx="659.1" cy="571.9" r="2.0" fill="#cbd5e1" opacity="0.92"/>
<circle cx="659.1" cy="583.6" r="2.0" fill="#cbd5e1" opacity="0.92"/>
<circle cx="659.1" cy="595.2" r="2.0" fill="#cbd5e1" opacity="0.92"/>
<circle cx="659.1" cy="606.8" r="2.0" fill="#cbd5e1" opacity="0.92"/>
<circle cx="659.1" cy="618.5" r="2.0" fill="#cbd5e1" opacity="0.92"/>
<circle cx="659.1" cy="630.1" r="2.0" fill="#cbd5e1" opacity="0.92"/>
<circle cx="659.1" cy="641.7" r="2.0" fill="#cbd5e1" opacity="0.92"/>
<circle cx="659.1" cy="653.4" r="2.0" fill="#cbd5e1" opacity="0.92"/>
<circle cx="659.1" cy="665.0" r="2.0" fill="#cbd5e1" opacity="0.92"/>
<circle cx="757.3" cy="95.0" r="2.0" fill="#cbd5e1" opacity="0.92"/>
<circle cx="757.3" cy="106.6" r="2.0" fill="#cbd5e1" opacity="0.92"/>
<circle cx="757.3" cy="118.3" r="2.0" fill="#cbd5e1" opacity="0.92"/>
<circle cx="757.3" cy="129.9" r="2.0" fill="#cbd5e1" opacity="0.92"/>
<circle cx="757.3" cy="141.5" r="2.0" fill="#cbd5e1" opacity="0.92"/>
<circle cx="757.3" cy="153.2" r="2.0" fill="#cbd5e1" opacity="0.92"/>
<circle cx="757.3" cy="164.8" r="2.0" fill="#cbd5e1" opacity="0.92"/>
<circle cx="757.3" cy="176.4" r="2.0" fill="#cbd5e1" opacity="0.92"/>
<circle cx="757.3" cy="188.1" r="2.0" fill="#cbd5e1" opacity="0.92"/>
<circle cx="757.3" cy="199.7" r="2.0" fill="#cbd5e1" opacity="0.92"/>
<circle cx="757.3" cy="211.3" r="2.0" fill="#cbd5e1" opacity="0.92"/>
<circle cx="757.3" cy="223.0" r="2.0" fill="#cbd5e1" opacity="0.92"/>
<circle cx="757.3" cy="234.6" r="2.0" fill="#cbd5e1" opacity="0.92"/>
<circle cx="757.3" cy="246.2" r="2.0" fill="#cbd5e1" opacity="0.92"/>
<circle cx="757.3" cy="257.9" r="2.0" fill="#cbd5e1" opacity="0.92"/>
<circle cx="757.3" cy="269.5" r="2.0" fill="#cbd5e1" opacity="0.92"/>
<circle cx="757.3" cy="281.1" r="2.0" fill="#cbd5e1" opacity="0.92"/>
<circle cx="757.3" cy="292.8" r="2.0" fill="#cbd5e1" opacity="0.92"/>
<circle cx="757.3" cy="304.4" r="3.4" fill="#0f172a" opacity="0.92"/>
<circle cx="757.3" cy="316.0" r="2.0" fill="#cbd5e1" opacity="0.92"/>
<circle cx="757.3" cy="327.7" r="2.0" fill="#cbd5e1" opacity="0.92"/>
<circle cx="757.3" cy="339.3" r="2.0" fill="#cbd5e1" opacity="0.92"/>
<circle cx="757.3" cy="350.9" r="2.0" fill="#cbd5e1" opacity="0.92"/>
<circle cx="757.3" cy="362.6" r="2.0" fill="#cbd5e1" opacity="0.92"/>
<circle cx="757.3" cy="374.2" r="2.0" fill="#cbd5e1" opacity="0.92"/>
<circle cx="757.3" cy="385.8" r="2.0" fill="#cbd5e1" opacity="0.92"/>
<circle cx="757.3" cy="397.4" r="2.0" fill="#cbd5e1" opacity="0.92"/>
<circle cx="757.3" cy="409.1" r="2.0" fill="#cbd5e1" opacity="0.92"/>
<circle cx="757.3" cy="420.7" r="2.0" fill="#cbd5e1" opacity="0.92"/>
<circle cx="757.3" cy="432.3" r="2.0" fill="#cbd5e1" opacity="0.92"/>
<circle cx="757.3" cy="444.0" r="3.4" fill="#0f172a" opacity="0.92"/>
<circle cx="757.3" cy="455.6" r="2.0" fill="#cbd5e1" opacity="0.92"/>
<circle cx="757.3" cy="467.2" r="2.0" fill="#cbd5e1" opacity="0.92"/>
<circle cx="757.3" cy="478.9" r="2.0" fill="#cbd5e1" opacity="0.92"/>
<circle cx="757.3" cy="490.5" r="2.0" fill="#cbd5e1" opacity="0.92"/>
<circle cx="757.3" cy="502.1" r="2.0" fill="#cbd5e1" opacity="0.92"/>
<circle cx="757.3" cy="513.8" r="2.0" fill="#cbd5e1" opacity="0.92"/>
<circle cx="757.3" cy="525.4" r="2.0" fill="#cbd5e1" opacity="0.92"/>
<circle cx="757.3" cy="537.0" r="2.0" fill="#cbd5e1" opacity="0.92"/>
<circle cx="757.3" cy="548.7" r="2.0" fill="#cbd5e1" opacity="0.92"/>
<circle cx="757.3" cy="560.3" r="3.4" fill="#0f172a" opacity="0.92"/>
<circle cx="757.3" cy="571.9" r="2.0" fill="#cbd5e1" opacity="0.92"/>
<circle cx="757.3" cy="583.6" r="2.0" fill="#cbd5e1" opacity="0.92"/>
<circle cx="757.3" cy="595.2" r="2.0" fill="#cbd5e1" opacity="0.92"/>
<circle cx="757.3" cy="606.8" r="2.0" fill="#cbd5e1" opacity="0.92"/>
<circle cx="757.3" cy="618.5" r="2.0" fill="#cbd5e1" opacity="0.92"/>
<circle cx="757.3" cy="630.1" r="2.0" fill="#cbd5e1" opacity="0.92"/>
<circle cx="757.3" cy="641.7" r="2.0" fill="#cbd5e1" opacity="0.92"/>
<circle cx="757.3" cy="653.4" r="2.0" fill="#cbd5e1" opacity="0.92"/>
<circle cx="757.3" cy="665.0" r="2.0" fill="#cbd5e1" opacity="0.92"/>
<circle cx="855.5" cy="95.0" r="2.0" fill="#cbd5e1" opacity="0.92"/>
<circle cx="855.5" cy="106.6" r="2.0" fill="#cbd5e1" opacity="0.92"/>
<circle cx="855.5" cy="118.3" r="2.0" fill="#cbd5e1" opacity="0.92"/>
<circle cx="855.5" cy="129.9" r="2.0" fill="#cbd5e1" opacity="0.92"/>
<circle cx="855.5" cy="141.5" r="2.0" fill="#cbd5e1" opacity="0.92"/>
<circle cx="855.5" cy="153.2" r="2.0" fill="#cbd5e1" opacity="0.92"/>
<circle cx="855.5" cy="164.8" r="2.0" fill="#cbd5e1" opacity="0.92"/>
<circle cx="855.5" cy="176.4" r="2.0" fill="#cbd5e1" opacity="0.92"/>
<circle cx="855.5" cy="188.1" r="2.0" fill="#cbd5e1" opacity="0.92"/>
<circle cx="855.5" cy="199.7" r="2.0" fill="#cbd5e1" opacity="0.92"/>
<circle cx="855.5" cy="211.3" r="2.0" fill="#cbd5e1" opacity="0.92"/>
<circle cx="855.5" cy="223.0" r="2.0" fill="#cbd5e1" opacity="0.92"/>
<circle cx="855.5" cy="234.6" r="2.0" fill="#cbd5e1" opacity="0.92"/>
<circle cx="855.5" cy="246.2" r="2.0" fill="#cbd5e1" opacity="0.92"/>
<circle cx="855.5" cy="257.9" r="2.0" fill="#cbd5e1" opacity="0.92"/>
<circle cx="855.5" cy="269.5" r="2.0" fill="#cbd5e1" opacity="0.92"/>
<circle cx="855.5" cy="281.1" r="2.0" fill="#cbd5e1" opacity="0.92"/>
<circle cx="855.5" cy="292.8" r="2.0" fill="#cbd5e1" opacity="0.92"/>
<circle cx="855.5" cy="304.4" r="2.0" fill="#cbd5e1" opacity="0.92"/>
<circle cx="855.5" cy="316.0" r="2.0" fill="#cbd5e1" opacity="0.92"/>
<circle cx="855.5" cy="327.7" r="3.4" fill="#0f172a" opacity="0.92"/>
<circle cx="855.5" cy="339.3" r="2.0" fill="#cbd5e1" opacity="0.92"/>
<circle cx="855.5" cy="350.9" r="2.0" fill="#cbd5e1" opacity="0.92"/>
<circle cx="855.5" cy="362.6" r="2.0" fill="#cbd5e1" opacity="0.92"/>
<circle cx="855.5" cy="374.2" r="2.0" fill="#cbd5e1" opacity="0.92"/>
<circle cx="855.5" cy="385.8" r="2.0" fill="#cbd5e1" opacity="0.92"/>
<circle cx="855.5" cy="397.4" r="2.0" fill="#cbd5e1" opacity="0.92"/>
<circle cx="855.5" cy="409.1" r="2.0" fill="#cbd5e1" opacity="0.92"/>
<circle cx="855.5" cy="420.7" r="2.0" fill="#cbd5e1" opacity="0.92"/>
<circle cx="855.5" cy="432.3" r="2.0" fill="#cbd5e1" opacity="0.92"/>
<circle cx="855.5" cy="444.0" r="2.0" fill="#cbd5e1" opacity="0.92"/>
<circle cx="855.5" cy="455.6" r="2.0" fill="#cbd5e1" opacity="0.92"/>
<circle cx="855.5" cy="467.2" r="2.0" fill="#cbd5e1" opacity="0.92"/>
<circle cx="855.5" cy="478.9" r="2.0" fill="#cbd5e1" opacity="0.92"/>
<circle cx="855.5" cy="490.5" r="2.0" fill="#cbd5e1" opacity="0.92"/>
<circle cx="855.5" cy="502.1" r="2.0" fill="#cbd5e1" opacity="0.92"/>
<circle cx="855.5" cy="513.8" r="2.0" fill="#cbd5e1" opacity="0.92"/>
<circle cx="855.5" cy="525.4" r="2.0" fill="#cbd5e1" opacity="0.92"/>
<circle cx="855.5" cy="537.0" r="2.0" fill="#cbd5e1" opacity="0.92"/>
<circle cx="855.5" cy="548.7" r="2.0" fill="#cbd5e1" opacity="0.92"/>
<circle cx="855.5" cy="560.3" r="2.0" fill="#cbd5e1" opacity="0.92"/>
<circle cx="855.5" cy="571.9" r="2.0" fill="#cbd5e1" opacity="0.92"/>
<circle cx="855.5" cy="583.6" r="2.0" fill="#cbd5e1" opacity="0.92"/>
<circle cx="855.5" cy="595.2" r="2.0" fill="#cbd5e1" opacity="0.92"/>
<circle cx="855.5" cy="606.8" r="2.0" fill="#cbd5e1" opacity="0.92"/>
<circle cx="855.5" cy="618.5" r="3.4" fill="#0f172a" opacity="0.92"/>
<circle cx="855.5" cy="630.1" r="2.0" fill="#cbd5e1" opacity="0.92"/>
<circle cx="855.5" cy="641.7" r="2.0" fill="#cbd5e1" opacity="0.92"/>
<circle cx="855.5" cy="653.4" r="2.0" fill="#cbd5e1" opacity="0.92"/>
<circle cx="855.5" cy="665.0" r="2.0" fill="#cbd5e1" opacity="0.92"/>
<circle cx="953.6" cy="95.0" r="3.4" fill="#0f172a" opacity="0.92"/>
<circle cx="953.6" cy="106.6" r="2.0" fill="#cbd5e1" opacity="0.92"/>
<circle cx="953.6" cy="118.3" r="2.0" fill="#cbd5e1" opacity="0.92"/>
<circle cx="953.6" cy="129.9" r="2.0" fill="#cbd5e1" opacity="0.92"/>
<circle cx="953.6" cy="141.5" r="2.0" fill="#cbd5e1" opacity="0.92"/>
<circle cx="953.6" cy="153.2" r="2.0" fill="#cbd5e1" opacity="0.92"/>
<circle cx="953.6" cy="164.8" r="2.0" fill="#cbd5e1" opacity="0.92"/>
<circle cx="953.6" cy="176.4" r="2.0" fill="#cbd5e1" opacity="0.92"/>
<circle cx="953.6" cy="188.1" r="2.0" fill="#cbd5e1" opacity="0.92"/>
<circle cx="953.6" cy="199.7" r="2.0" fill="#cbd5e1" opacity="0.92"/>
<circle cx="953.6" cy="211.3" r="2.0" fill="#cbd5e1" opacity="0.92"/>
<circle cx="953.6" cy="223.0" r="2.0" fill="#cbd5e1" opacity="0.92"/>
<circle cx="953.6" cy="234.6" r="2.0" fill="#cbd5e1" opacity="0.92"/>
<circle cx="953.6" cy="246.2" r="2.0" fill="#cbd5e1" opacity="0.92"/>
<circle cx="953.6" cy="257.9" r="2.0" fill="#cbd5e1" opacity="0.92"/>
<circle cx="953.6" cy="269.5" r="2.0" fill="#cbd5e1" opacity="0.92"/>
<circle cx="953.6" cy="281.1" r="2.0" fill="#cbd5e1" opacity="0.92"/>
<circle cx="953.6" cy="292.8" r="2.0" fill="#cbd5e1" opacity="0.92"/>
<circle cx="953.6" cy="304.4" r="2.0" fill="#cbd5e1" opacity="0.92"/>
<circle cx="953.6" cy="316.0" r="2.0" fill="#cbd5e1" opacity="0.92"/>
<circle cx="953.6" cy="327.7" r="2.0" fill="#cbd5e1" opacity="0.92"/>
<circle cx="953.6" cy="339.3" r="2.0" fill="#cbd5e1" opacity="0.92"/>
<circle cx="953.6" cy="350.9" r="3.4" fill="#0f172a" opacity="0.92"/>
<circle cx="953.6" cy="362.6" r="2.0" fill="#cbd5e1" opacity="0.92"/>
<circle cx="953.6" cy="374.2" r="2.0" fill="#cbd5e1" opacity="0.92"/>
<circle cx="953.6" cy="385.8" r="2.0" fill="#cbd5e1" opacity="0.92"/>
<circle cx="953.6" cy="397.4" r="2.0" fill="#cbd5e1" opacity="0.92"/>
<circle cx="953.6" cy="409.1" r="2.0" fill="#cbd5e1" opacity="0.92"/>
<circle cx="953.6" cy="420.7" r="2.0" fill="#cbd5e1" opacity="0.92"/>
<circle cx="953.6" cy="432.3" r="2.0" fill="#cbd5e1" opacity="0.92"/>
<circle cx="953.6" cy="444.0" r="2.0" fill="#cbd5e1" opacity="0.92"/>
<circle cx="953.6" cy="455.6" r="2.0" fill="#cbd5e1" opacity="0.92"/>
<circle cx="953.6" cy="467.2" r="2.0" fill="#cbd5e1" opacity="0.92"/>
<circle cx="953.6" cy="478.9" r="2.0" fill="#cbd5e1" opacity="0.92"/>
<circle cx="953.6" cy="490.5" r="2.0" fill="#cbd5e1" opacity="0.92"/>
<circle cx="953.6" cy="502.1" r="2.0" fill="#cbd5e1" opacity="0.92"/>
<circle cx="953.6" cy="513.8" r="3.4" fill="#0f172a" opacity="0.92"/>
<circle cx="953.6" cy="525.4" r="2.0" fill="#cbd5e1" opacity="0.92"/>
<circle cx="953.6" cy="537.0" r="2.0" fill="#cbd5e1" opacity="0.92"/>
<circle cx="953.6" cy="548.7" r="2.0" fill="#cbd5e1" opacity="0.92"/>
<circle cx="953.6" cy="560.3" r="2.0" fill="#cbd5e1" opacity="0.92"/>
<circle cx="953.6" cy="571.9" r="2.0" fill="#cbd5e1" opacity="0.92"/>
<circle cx="953.6" cy="583.6" r="2.0" fill="#cbd5e1" opacity="0.92"/>
<circle cx="953.6" cy="595.2" r="2.0" fill="#cbd5e1" opacity="0.92"/>
<circle cx="953.6" cy="606.8" r="2.0" fill="#cbd5e1" opacity="0.92"/>
<circle cx="953.6" cy="618.5" r="2.0" fill="#cbd5e1" opacity="0.92"/>
<circle cx="953.6" cy="630.1" r="2.0" fill="#cbd5e1" opacity="0.92"/>
<circle cx="953.6" cy="641.7" r="2.0" fill="#cbd5e1" opacity="0.92"/>
<circle cx="953.6" cy="653.4" r="2.0" fill="#cbd5e1" opacity="0.92"/>
<circle cx="953.6" cy="665.0" r="2.0" fill="#cbd5e1" opacity="0.92"/>
<circle cx="1051.8" cy="95.0" r="2.0" fill="#cbd5e1" opacity="0.92"/>
<circle cx="1051.8" cy="106.6" r="2.0" fill="#cbd5e1" opacity="0.92"/>
<circle cx="1051.8" cy="118.3" r="2.0" fill="#cbd5e1" opacity="0.92"/>
<circle cx="1051.8" cy="129.9" r="2.0" fill="#cbd5e1" opacity="0.92"/>
<circle cx="1051.8" cy="141.5" r="2.0" fill="#cbd5e1" opacity="0.92"/>
<circle cx="1051.8" cy="153.2" r="3.4" fill="#0f172a" opacity="0.92"/>
<circle cx="1051.8" cy="164.8" r="2.0" fill="#cbd5e1" opacity="0.92"/>
<circle cx="1051.8" cy="176.4" r="2.0" fill="#cbd5e1" opacity="0.92"/>
<circle cx="1051.8" cy="188.1" r="2.0" fill="#cbd5e1" opacity="0.92"/>
<circle cx="1051.8" cy="199.7" r="2.0" fill="#cbd5e1" opacity="0.92"/>
<circle cx="1051.8" cy="211.3" r="2.0" fill="#cbd5e1" opacity="0.92"/>
<circle cx="1051.8" cy="223.0" r="2.0" fill="#cbd5e1" opacity="0.92"/>
<circle cx="1051.8" cy="234.6" r="2.0" fill="#cbd5e1" opacity="0.92"/>
<circle cx="1051.8" cy="246.2" r="2.0" fill="#cbd5e1" opacity="0.92"/>
<circle cx="1051.8" cy="257.9" r="2.0" fill="#cbd5e1" opacity="0.92"/>
<circle cx="1051.8" cy="269.5" r="2.0" fill="#cbd5e1" opacity="0.92"/>
<circle cx="1051.8" cy="281.1" r="2.0" fill="#cbd5e1" opacity="0.92"/>
<circle cx="1051.8" cy="292.8" r="2.0" fill="#cbd5e1" opacity="0.92"/>
<circle cx="1051.8" cy="304.4" r="2.0" fill="#cbd5e1" opacity="0.92"/>
<circle cx="1051.8" cy="316.0" r="2.0" fill="#cbd5e1" opacity="0.92"/>
<circle cx="1051.8" cy="327.7" r="2.0" fill="#cbd5e1" opacity="0.92"/>
<circle cx="1051.8" cy="339.3" r="2.0" fill="#cbd5e1" opacity="0.92"/>
<circle cx="1051.8" cy="350.9" r="2.0" fill="#cbd5e1" opacity="0.92"/>
<circle cx="1051.8" cy="362.6" r="2.0" fill="#cbd5e1" opacity="0.92"/>
<circle cx="1051.8" cy="374.2" r="3.4" fill="#0f172a" opacity="0.92"/>
<circle cx="1051.8" cy="385.8" r="2.0" fill="#cbd5e1" opacity="0.92"/>
<circle cx="1051.8" cy="397.4" r="2.0" fill="#cbd5e1" opacity="0.92"/>
<circle cx="1051.8" cy="409.1" r="2.0" fill="#cbd5e1" opacity="0.92"/>
<circle cx="1051.8" cy="420.7" r="2.0" fill="#cbd5e1" opacity="0.92"/>
<circle cx="1051.8" cy="432.3" r="2.0" fill="#cbd5e1" opacity="0.92"/>
<circle cx="1051.8" cy="444.0" r="2.0" fill="#cbd5e1" opacity="0.92"/>
<circle cx="1051.8" cy="455.6" r="2.0" fill="#cbd5e1" opacity="0.92"/>
<circle cx="1051.8" cy="467.2" r="2.0" fill="#cbd5e1" opacity="0.92"/>
<circle cx="1051.8" cy="478.9" r="2.0" fill="#cbd5e1" opacity="0.92"/>
<circle cx="1051.8" cy="490.5" r="2.0" fill="#cbd5e1" opacity="0.92"/>
<circle cx="1051.8" cy="502.1" r="2.0" fill="#cbd5e1" opacity="0.92"/>
<circle cx="1051.8" cy="513.8" r="2.0" fill="#cbd5e1" opacity="0.92"/>
<circle cx="1051.8" cy="525.4" r="2.0" fill="#cbd5e1" opacity="0.92"/>
<circle cx="1051.8" cy="537.0" r="2.0" fill="#cbd5e1" opacity="0.92"/>
<circle cx="1051.8" cy="548.7" r="2.0" fill="#cbd5e1" opacity="0.92"/>
<circle cx="1051.8" cy="560.3" r="2.0" fill="#cbd5e1" opacity="0.92"/>
<circle cx="1051.8" cy="571.9" r="2.0" fill="#cbd5e1" opacity="0.92"/>
<circle cx="1051.8" cy="583.6" r="2.0" fill="#cbd5e1" opacity="0.92"/>
<circle cx="1051.8" cy="595.2" r="2.0" fill="#cbd5e1" opacity="0.92"/>
<circle cx="1051.8" cy="606.8" r="2.0" fill="#cbd5e1" opacity="0.92"/>
<circle cx="1051.8" cy="618.5" r="2.0" fill="#cbd5e1" opacity="0.92"/>
<circle cx="1051.8" cy="630.1" r="2.0" fill="#cbd5e1" opacity="0.92"/>
<circle cx="1051.8" cy="641.7" r="2.0" fill="#cbd5e1" opacity="0.92"/>
<circle cx="1051.8" cy="653.4" r="2.0" fill="#cbd5e1" opacity="0.92"/>
<circle cx="1051.8" cy="665.0" r="2.0" fill="#cbd5e1" opacity="0.92"/>
<circle cx="1150.0" cy="95.0" r="2.0" fill="#cbd5e1" opacity="0.92"/>
<circle cx="1150.0" cy="106.6" r="2.0" fill="#cbd5e1" opacity="0.92"/>
<circle cx="1150.0" cy="118.3" r="2.0" fill="#cbd5e1" opacity="0.92"/>
<circle cx="1150.0" cy="129.9" r="2.0" fill="#cbd5e1" opacity="0.92"/>
<circle cx="1150.0" cy="141.5" r="2.0" fill="#cbd5e1" opacity="0.92"/>
<circle cx="1150.0" cy="153.2" r="2.0" fill="#cbd5e1" opacity="0.92"/>
<circle cx="1150.0" cy="164.8" r="2.0" fill="#cbd5e1" opacity="0.92"/>
<circle cx="1150.0" cy="176.4" r="2.0" fill="#cbd5e1" opacity="0.92"/>
<circle cx="1150.0" cy="188.1" r="2.0" fill="#cbd5e1" opacity="0.92"/>
<circle cx="1150.0" cy="199.7" r="2.0" fill="#cbd5e1" opacity="0.92"/>
<circle cx="1150.0" cy="211.3" r="2.0" fill="#cbd5e1" opacity="0.92"/>
<circle cx="1150.0" cy="223.0" r="2.0" fill="#cbd5e1" opacity="0.92"/>
<circle cx="1150.0" cy="234.6" r="2.0" fill="#cbd5e1" opacity="0.92"/>
<circle cx="1150.0" cy="246.2" r="2.0" fill="#cbd5e1" opacity="0.92"/>
<circle cx="1150.0" cy="257.9" r="2.0" fill="#cbd5e1" opacity="0.92"/>
<circle cx="1150.0" cy="269.5" r="2.0" fill="#cbd5e1" opacity="0.92"/>
<circle cx="1150.0" cy="281.1" r="2.0" fill="#cbd5e1" opacity="0.92"/>
<circle cx="1150.0" cy="292.8" r="2.0" fill="#cbd5e1" opacity="0.92"/>
<circle cx="1150.0" cy="304.4" r="2.0" fill="#cbd5e1" opacity="0.92"/>
<circle cx="1150.0" cy="316.0" r="2.0" fill="#cbd5e1" opacity="0.92"/>
<circle cx="1150.0" cy="327.7" r="2.0" fill="#cbd5e1" opacity="0.92"/>
<circle cx="1150.0" cy="339.3" r="2.0" fill="#cbd5e1" opacity="0.92"/>
<circle cx="1150.0" cy="350.9" r="2.0" fill="#cbd5e1" opacity="0.92"/>
<circle cx="1150.0" cy="362.6" r="2.0" fill="#cbd5e1" opacity="0.92"/>
<circle cx="1150.0" cy="374.2" r="2.0" fill="#cbd5e1" opacity="0.92"/>
<circle cx="1150.0" cy="385.8" r="2.0" fill="#cbd5e1" opacity="0.92"/>
<circle cx="1150.0" cy="397.4" r="2.0" fill="#cbd5e1" opacity="0.92"/>
<circle cx="1150.0" cy="409.1" r="2.0" fill="#cbd5e1" opacity="0.92"/>
<circle cx="1150.0" cy="420.7" r="2.0" fill="#cbd5e1" opacity="0.92"/>
<circle cx="1150.0" cy="432.3" r="2.0" fill="#cbd5e1" opacity="0.92"/>
<circle cx="1150.0" cy="444.0" r="2.0" fill="#cbd5e1" opacity="0.92"/>
<circle cx="1150.0" cy="455.6" r="2.0" fill="#cbd5e1" opacity="0.92"/>
<circle cx="1150.0" cy="467.2" r="2.0" fill="#cbd5e1" opacity="0.92"/>
<circle cx="1150.0" cy="478.9" r="2.0" fill="#cbd5e1" opacity="0.92"/>
<circle cx="1150.0" cy="490.5" r="2.0" fill="#cbd5e1" opacity="0.92"/>
<circle cx="1150.0" cy="502.1" r="2.0" fill="#cbd5e1" opacity="0.92"/>
<circle cx="1150.0" cy="513.8" r="2.0" fill="#cbd5e1" opacity="0.92"/>
<circle cx="1150.0" cy="525.4" r="2.0" fill="#cbd5e1" opacity="0.92"/>
<circle cx="1150.0" cy="537.0" r="2.0" fill="#cbd5e1" opacity="0.92"/>
<circle cx="1150.0" cy="548.7" r="2.0" fill="#cbd5e1" opacity="0.92"/>
<circle cx="1150.0" cy="560.3" r="2.0" fill="#cbd5e1" opacity="0.92"/>
<circle cx="1150.0" cy="571.9" r="2.0" fill="#cbd5e1" opacity="0.92"/>
<circle cx="1150.0" cy="583.6" r="2.0" fill="#cbd5e1" opacity="0.92"/>
<circle cx="1150.0" cy="595.2" r="2.0" fill="#cbd5e1" opacity="0.92"/>
<circle cx="1150.0" cy="606.8" r="2.0" fill="#cbd5e1" opacity="0.92"/>
<circle cx="1150.0" cy="618.5" r="2.0" fill="#cbd5e1" opacity="0.92"/>
<circle cx="1150.0" cy="630.1" r="2.0" fill="#cbd5e1" opacity="0.92"/>
<circle cx="1150.0" cy="641.7" r="2.0" fill="#cbd5e1" opacity="0.92"/>
<circle cx="1150.0" cy="653.4" r="2.0" fill="#cbd5e1" opacity="0.92"/>
<circle cx="1150.0" cy="665.0" r="3.4" fill="#0f172a" opacity="0.92"/>
<polyline points="70.0,95.0 168.2,234.6 364.5,304.4 560.9,374.2 757.3,444.0 953.6,513.8 1150.0,665.0" fill="none" stroke="#dc2626" stroke-width="3.2" stroke-linecap="round" stroke-linejoin="round" opacity="0.88"/>
<polyline points="70.0,95.0 168.2,211.3 266.4,269.5 364.5,327.7 462.7,385.8 560.9,444.0 659.1,502.1 757.3,560.3 855.5,618.5 953.6,95.0 1051.8,153.2 1150.0,665.0" fill="none" stroke="#2563eb" stroke-width="3.2" stroke-linecap="round" stroke-linejoin="round" opacity="0.88"/>
<polyline points="70.0,95.0 70.0,595.2 168.2,606.8 168.2,641.7 266.4,653.4 266.4,106.6 364.5,118.3 364.5,153.2 462.7,164.8 462.7,199.7 560.9,211.3 560.9,246.2 659.1,257.9 659.1,292.8 757.3,304.4 855.5,327.7 953.6,350.9 1051.8,374.2 1150.0,665.0" fill="none" stroke="#16a34a" stroke-width="3.2" stroke-linecap="round" stroke-linejoin="round" opacity="0.88"/>
<rect x="760" y="75" width="18" height="6" rx="3" fill="#dc2626"/>
<text x="786" y="82" font-size="12" font-family="Segoe UI" fill="#334155">fast_corridor</text>
<rect x="905" y="75" width="18" height="6" rx="3" fill="#2563eb"/>
<text x="931" y="82" font-size="12" font-family="Segoe UI" fill="#334155">balanced_corridor</text>
<rect x="1050" y="75" width="18" height="6" rx="3" fill="#16a34a"/>
<text x="1076" y="82" font-size="12" font-family="Segoe UI" fill="#334155">stealth_corridor</text>
</svg>